<svg width="667.64375px" height="122px" xmlns="http://www.w3.org/2000/svg" viewBox="-83.82187499999998 14 667.64375 122" style="background: rgba(0, 0, 0, 0);" preserveAspectRatio="xMidYMid"><defs><linearGradient id="editing-gradient-gradient" x1="0" x2="1" y1="0.5" y2="0.5" gradientUnits="objectBoundingBox"><stop offset="0" stop-color="#f0f"></stop><stop offset="1" stop-color="#0ff"></stop></linearGradient></defs><g><g transform="translate(12.30498418211937, 104.47000312805176)"><path d="M14.34 0L0.38 0L8.51-42.24L22.59-42.24L14.34 0ZM70.08 1.28L70.08 1.28L70.08 1.28Q62.34 1.28 62.34-4.74L62.34-4.74L62.34-4.74Q62.34-7.36 63.46-12.45L63.46-12.45L63.46-12.45Q64.58-17.54 64.96-19.58L64.96-19.58L64.96-19.58Q65.86-24.26 65.86-25.73L65.86-25.73L65.86-25.73Q65.86-28.99 63.42-28.99L63.42-28.99L63.42-28.99Q61.82-28.99 60.29-26.78L60.29-26.78L60.29-26.78Q58.75-24.58 58.05-20.16L58.05-20.16L54.08 0L41.60 1.28L45.06-16.13L45.06-16.13Q45.63-19.01 46.14-22.27L46.14-22.27L46.14-22.27Q46.66-25.54 46.66-26.05L46.66-26.05L46.66-26.05Q46.66-28.99 44.48-28.99L44.48-28.99L44.48-28.99Q43.01-28.99 41.41-26.82L41.41-26.82L41.41-26.82Q39.81-24.64 38.91-20.16L38.91-20.16L35.01 0L22.40 1.28L29.12-32.64L39.55-33.92L38.46-27.46L38.46-27.46Q40.13-30.91 43.20-32.42L43.20-32.42L43.20-32.42Q46.27-33.92 51.07-33.92L51.07-33.92L51.07-33.92Q53.82-33.92 55.62-32.58L55.62-32.58L55.62-32.58Q57.41-31.23 57.98-29.06L57.98-29.06L57.98-29.06Q59.07-31.30 61.86-32.61L61.86-32.61L61.86-32.61Q64.64-33.92 68.06-33.92L68.06-33.92L68.06-33.92Q71.49-33.92 73.18-33.18L73.18-33.18L73.18-33.18Q74.88-32.45 75.90-31.23L75.90-31.23L75.90-31.23Q77.63-28.99 77.63-24.90L77.63-24.90L77.63-24.90Q77.63-20.86 75.90-12.48L75.90-12.48L75.90-12.48Q75.01-8.38 75.01-6.88L75.01-6.88L75.01-6.88Q75.01-5.38 75.87-4.48L75.87-4.48L75.87-4.48Q76.74-3.58 78.02-3.46L78.02-3.46L78.02-3.46Q77.38-1.28 75.17 0L75.17 0L75.17 0Q72.96 1.28 70.08 1.28ZM85.73-1.92L85.73-1.92L85.73-1.92Q84.22-3.58 83.55-6.21L83.55-6.21L83.55-6.21Q82.88-8.83 82.88-13.12L82.88-13.12L82.88-13.12Q82.88-17.41 84.35-21.31L84.35-21.31L84.35-21.31Q85.82-25.22 88.51-28.03L88.51-28.03L88.51-28.03Q94.02-33.92 103.10-33.92L103.10-33.92L103.10-33.92Q106.37-33.92 108.74-32.83L108.74-32.83L119.68-33.92L114.94-8.96L114.94-8.96Q114.75-8.19 114.75-6.78L114.75-6.78L114.75-6.78Q114.75-5.38 115.62-4.48L115.62-4.48L115.62-4.48Q116.48-3.58 117.76-3.46L117.76-3.46L117.76-3.46Q117.12-1.28 114.78 0L114.78 0L114.78 0Q112.45 1.28 109.82 1.28L109.82 1.28L109.82 1.28Q107.20 1.28 105.44 0.29L105.44 0.29L105.44 0.29Q103.68-0.70 103.17-2.37L103.17-2.37L103.17-2.37Q102.14-0.77 99.97 0.26L99.97 0.26L99.97 0.26Q97.79 1.28 94.88 1.28L94.88 1.28L94.88 1.28Q91.97 1.28 89.60 0.51L89.60 0.51L89.60 0.51Q87.23-0.26 85.73-1.92ZM99.23-27.90L99.23-27.90L99.23-27.90Q98.50-26.75 97.86-24.80L97.86-24.80L97.86-24.80Q97.22-22.85 96.16-17.63L96.16-17.63L96.16-17.63Q95.10-12.42 95.10-8.70L95.10-8.70L95.10-8.70Q95.10-4.99 95.68-3.90L95.68-3.90L95.68-3.90Q96.26-2.82 97.28-2.82L97.28-2.82L97.28-2.82Q99.33-2.82 100.83-4.77L100.83-4.77L100.83-4.77Q102.34-6.72 102.91-10.18L102.91-10.18L106.30-28.93L106.30-28.93Q104.96-30.08 103.39-30.08L103.39-30.08L103.39-30.08Q101.82-30.08 100.90-29.57L100.90-29.57L100.90-29.57Q99.97-29.06 99.23-27.90ZM127.42-26.75L127.42-26.75L127.42-26.75Q129.60-29.82 132.90-31.87L132.90-31.87L132.90-31.87Q136.19-33.92 140.22-33.92L140.22-33.92L140.22-33.92Q144.26-33.92 146.18-32.64L146.18-32.64L158.72-33.92L154.37-9.34L154.37-9.34Q152.13 3.20 147.39 8.13L147.39 8.13L147.39 8.13Q142.85 12.80 134.02 12.80L134.02 12.80L134.02 12.80Q127.30 12.80 123.46 10.69L123.46 10.69L123.46 10.69Q119.62 8.58 119.62 5.06L119.62 5.06L119.62 5.06Q119.62 2.43 121.60 0.93L121.60 0.93L121.60 0.93Q123.58-0.58 126.66-0.58L126.66-0.58L126.66-0.58Q129.34-0.58 131.39 0.64L131.39 0.64L131.39 0.64Q132.61 1.28 133.18 2.18L133.18 2.18L133.18 2.18Q131.71 3.46 131.71 5.57L131.71 5.57L131.71 5.57Q131.71 8.32 134.27 8.32L134.27 8.32L134.27 8.32Q138.56 8.32 140.99-1.79L140.99-1.79L140.99-1.79Q141.70-4.54 142.27-7.30L142.27-7.30L142.27-7.30Q139.39-3.78 132.86-3.78L132.86-3.78L132.86-3.78Q128.32-3.78 125.70-5.95L125.70-5.95L125.70-5.95Q123.07-8.13 123.07-13.25L123.07-13.25L123.07-13.25Q123.07-16.45 124.16-20.06L124.16-20.06L124.16-20.06Q125.25-23.68 127.42-26.75ZM135.74-13.06L135.74-13.06L135.74-13.06Q135.74-8.70 137.98-8.70L137.98-8.70L137.98-8.70Q139.52-8.70 140.99-10.37L140.99-10.37L140.99-10.37Q142.14-11.71 142.59-13.70L142.59-13.70L145.86-30.14L145.86-30.14Q145.54-30.21 145.22-30.34L145.22-30.34L145.22-30.34Q144.58-30.59 143.74-30.59L143.74-30.59L143.74-30.59Q139.84-30.59 137.54-24.19L137.54-24.19L137.54-24.19Q135.74-19.20 135.74-13.06ZM187.14-10.82L187.14-10.82L187.14-10.82Q188.74-9.73 188.74-7.33L188.74-7.33L188.74-7.33Q188.74-4.93 187.52-3.39L187.52-3.39L187.52-3.39Q186.30-1.86 184.32-0.83L184.32-0.83L184.32-0.83Q180.22 1.28 175.81 1.28L175.81 1.28L175.81 1.28Q171.39 1.28 168.80 0.32L168.80 0.32L168.80 0.32Q166.21-0.64 164.48-2.43L164.48-2.43L164.48-2.43Q161.09-5.82 161.09-12.03L161.09-12.03L161.09-12.03Q161.09-21.70 166.34-27.58L166.34-27.58L166.34-27.58Q171.97-33.92 181.76-33.92L181.76-33.92L181.76-33.92Q187.84-33.92 190.85-31.36L190.85-31.36L190.85-31.36Q193.09-29.44 193.09-26.30L193.09-26.30L193.09-26.30Q193.09-15.04 173.63-15.04L173.63-15.04L173.63-15.04Q173.38-13.38 173.38-11.97L173.38-11.97L173.38-11.97Q173.38-9.02 174.69-7.90L174.69-7.90L174.69-7.90Q176-6.78 178.43-6.78L178.43-6.78L178.43-6.78Q180.86-6.78 183.46-7.90L183.46-7.90L183.46-7.90Q186.05-9.02 187.14-10.82ZM174.08-17.79L174.08-17.79L174.08-17.79Q178.62-17.79 181.25-20.61L181.25-20.61L181.25-20.61Q183.87-23.30 183.87-27.58L183.87-27.58L183.87-27.58Q183.87-29.06 183.33-29.86L183.33-29.86L183.33-29.86Q182.78-30.66 181.70-30.66L181.70-30.66L181.70-30.66Q180.61-30.66 179.68-30.24L179.68-30.24L179.68-30.24Q178.75-29.82 177.79-28.42L177.79-28.42L177.79-28.42Q175.42-25.22 174.08-17.79ZM210.82-10.37L210.82-10.37L210.82-10.37Q208.77-11.84 208.77-14.66L208.77-14.66L208.77-14.66Q208.77-16.19 209.54-17.44L209.54-17.44L209.54-17.44Q210.30-18.69 211.84-18.88L211.84-18.88L224.45-18.88L224.45-18.88Q226.56-18.88 227.20-20.16L227.20-20.16L227.20-20.16Q228.22-19.58 228.67-18.37L228.67-18.37L228.67-18.37Q229.12-17.15 229.12-15.87L229.12-15.87L229.12-15.87Q229.12-14.59 228.13-13.34L228.13-13.34L228.13-13.34Q227.14-12.10 225.66-11.97L225.66-11.97L213.95-11.97L213.95-11.97Q212.61-11.97 211.97-11.55L211.97-11.55L211.97-11.55Q211.33-11.14 210.82-10.37ZM272.64-20.61L285.57-21.76L285.57-21.76Q280.96-11.65 280.96 0.06L280.96 0.06L280.96 0.06Q279.23 1.28 276.70 1.28L276.70 1.28L276.70 1.28Q274.18 1.28 272.58 0.10L272.58 0.10L272.58 0.10Q270.98-1.09 270.66-2.30L270.66-2.30L270.66-2.30Q269.06-0.64 266.46 0.32L266.46 0.32L266.46 0.32Q263.87 1.28 261.12 1.28L261.12 1.28L261.12 1.28Q258.37 1.28 255.97 0.38L255.97 0.38L255.97 0.38Q253.57-0.51 251.71-2.50L251.71-2.50L251.71-2.50Q247.62-6.85 247.62-15.10L247.62-15.10L247.62-15.10Q247.62-27.90 254.46-35.58L254.46-35.58L254.46-35.58Q261.50-43.52 273.98-43.52L273.98-43.52L273.98-43.52Q282.62-43.52 285.70-39.04L285.70-39.04L285.70-39.04Q286.66-37.63 286.66-35.94L286.66-35.94L286.66-35.94Q286.66-34.24 285.92-32.80L285.92-32.80L285.92-32.80Q285.18-31.36 284.03-30.21L284.03-30.21L284.03-30.21Q281.28-27.65 277.89-27.65L277.89-27.65L277.89-27.65Q276.54-27.65 275.26-28.10L275.26-28.10L275.26-28.10Q275.52-30.02 275.52-32.26L275.52-32.26L275.52-32.26Q275.52-34.50 275.36-35.52L275.36-35.52L275.36-35.52Q275.20-36.54 274.82-37.38L274.82-37.38L274.82-37.38Q273.98-39.10 272.16-39.10L272.16-39.10L272.16-39.10Q270.34-39.10 268.32-37.15L268.32-37.15L268.32-37.15Q266.30-35.20 264.70-32L264.70-32L264.70-32Q261.18-24.83 261.18-16.19L261.18-16.19L261.18-16.19Q261.18-12.22 262.72-9.41L262.72-9.41L262.72-9.41Q264.38-6.34 267.33-6.34L267.33-6.34L267.33-6.34Q268.35-6.34 269.28-6.85L269.28-6.85L269.28-6.85Q270.21-7.36 270.59-7.74L270.59-7.74L272.64-20.61ZM291.49-1.92L291.49-1.92L291.49-1.92Q289.98-3.58 289.31-6.21L289.31-6.21L289.31-6.21Q288.64-8.83 288.64-13.12L288.64-13.12L288.64-13.12Q288.64-17.41 290.11-21.31L290.11-21.31L290.11-21.31Q291.58-25.22 294.27-28.03L294.27-28.03L294.27-28.03Q299.78-33.92 308.86-33.92L308.86-33.92L308.86-33.92Q312.13-33.92 314.50-32.83L314.50-32.83L325.44-33.92L320.70-8.96L320.70-8.96Q320.51-8.19 320.51-6.78L320.51-6.78L320.51-6.78Q320.51-5.38 321.38-4.48L321.38-4.48L321.38-4.48Q322.24-3.58 323.52-3.46L323.52-3.46L323.52-3.46Q322.88-1.28 320.54 0L320.54 0L320.54 0Q318.21 1.28 315.58 1.28L315.58 1.28L315.58 1.28Q312.96 1.28 311.20 0.29L311.20 0.29L311.20 0.29Q309.44-0.70 308.93-2.37L308.93-2.37L308.93-2.37Q307.90-0.77 305.73 0.26L305.73 0.26L305.73 0.26Q303.55 1.28 300.64 1.28L300.64 1.28L300.64 1.28Q297.73 1.28 295.36 0.51L295.36 0.51L295.36 0.51Q292.99-0.26 291.49-1.92ZM304.99-27.90L304.99-27.90L304.99-27.90Q304.26-26.75 303.62-24.80L303.62-24.80L303.62-24.80Q302.98-22.85 301.92-17.63L301.92-17.63L301.92-17.63Q300.86-12.42 300.86-8.70L300.86-8.70L300.86-8.70Q300.86-4.99 301.44-3.90L301.44-3.90L301.44-3.90Q302.02-2.82 303.04-2.82L303.04-2.82L303.04-2.82Q305.09-2.82 306.59-4.77L306.59-4.77L306.59-4.77Q308.10-6.72 308.67-10.18L308.67-10.18L312.06-28.93L312.06-28.93Q310.72-30.08 309.15-30.08L309.15-30.08L309.15-30.08Q307.58-30.08 306.66-29.57L306.66-29.57L306.66-29.57Q305.73-29.06 304.99-27.90ZM344.19-3.52L344.19-3.52L344.19-3.52Q342.21 1.28 335.87 1.28L335.87 1.28L335.87 1.28Q332.67 1.28 330.62-0.96L330.62-0.96L330.62-0.96Q328.96-2.82 328.96-4.93L328.96-4.93L328.96-4.93Q328.96-9.73 331.20-20.22L331.20-20.22L335.87-44.80L348.86-46.08L342.66-13.70L342.66-13.70Q341.57-8.96 341.57-7.30L341.57-7.30L341.57-7.30Q341.57-3.65 344.19-3.52ZM364.93-3.52L364.93-3.52L364.93-3.52Q362.94 1.28 356.61 1.28L356.61 1.28L356.61 1.28Q353.41 1.28 351.36-0.96L351.36-0.96L351.36-0.96Q349.70-2.82 349.70-4.93L349.70-4.93L349.70-4.93Q349.70-9.73 351.94-20.22L351.94-20.22L356.61-44.80L369.60-46.08L363.39-13.70L363.39-13.70Q362.30-8.96 362.30-7.30L362.30-7.30L362.30-7.30Q362.30-3.65 364.93-3.52ZM396.29-10.82L396.29-10.82L396.29-10.82Q397.89-9.73 397.89-7.33L397.89-7.33L397.89-7.33Q397.89-4.93 396.67-3.39L396.67-3.39L396.67-3.39Q395.46-1.86 393.47-0.83L393.47-0.83L393.47-0.83Q389.38 1.28 384.96 1.28L384.96 1.28L384.96 1.28Q380.54 1.28 377.95 0.32L377.95 0.32L377.95 0.32Q375.36-0.64 373.63-2.43L373.63-2.43L373.63-2.43Q370.24-5.82 370.24-12.03L370.24-12.03L370.24-12.03Q370.24-21.70 375.49-27.58L375.49-27.58L375.49-27.58Q381.12-33.92 390.91-33.92L390.91-33.92L390.91-33.92Q396.99-33.92 400-31.36L400-31.36L400-31.36Q402.24-29.44 402.24-26.30L402.24-26.30L402.24-26.30Q402.24-15.04 382.78-15.04L382.78-15.04L382.78-15.04Q382.53-13.38 382.53-11.97L382.53-11.97L382.53-11.97Q382.53-9.02 383.84-7.90L383.84-7.90L383.84-7.90Q385.15-6.78 387.58-6.78L387.58-6.78L387.58-6.78Q390.02-6.78 392.61-7.90L392.61-7.90L392.61-7.90Q395.20-9.02 396.29-10.82ZM383.23-17.79L383.23-17.79L383.23-17.79Q387.78-17.79 390.40-20.61L390.40-20.61L390.40-20.61Q393.02-23.30 393.02-27.58L393.02-27.58L393.02-27.58Q393.02-29.06 392.48-29.86L392.48-29.86L392.48-29.86Q391.94-30.66 390.85-30.66L390.85-30.66L390.85-30.66Q389.76-30.66 388.83-30.24L388.83-30.24L388.83-30.24Q387.90-29.82 386.94-28.42L386.94-28.42L386.94-28.42Q384.58-25.22 383.23-17.79ZM424.45-17.98L424.45-17.98L424.45-17.98Q426.75-22.08 426.75-26.24L426.75-26.24L426.75-26.24Q426.75-28.99 424.77-28.99L424.77-28.99L424.77-28.99Q423.23-28.99 421.63-26.37L421.63-26.37L421.63-26.37Q419.97-23.74 419.46-20.35L419.46-20.35L416.13 0L402.88 1.28L409.41-32.64L419.97-33.92L418.82-27.46L418.82-27.46Q421.95-33.92 428.99-33.92L428.99-33.92L428.99-33.92Q432.70-33.92 434.72-32L434.72-32L434.72-32Q436.74-30.08 436.74-26.14L436.74-26.14L436.74-26.14Q436.74-22.21 434.14-19.71L434.14-19.71L434.14-19.71Q431.55-17.22 427.14-17.22L427.14-17.22L427.14-17.22Q425.22-17.22 424.45-17.98ZM458.11-7.23L458.11-7.23L458.11-7.23Q454.78-3.78 448.70-3.78L448.70-3.78L448.70-3.78Q441.09-3.78 439.49-9.34L439.49-9.34L439.49-9.34Q438.98-11.01 438.98-12.86L438.98-12.86L438.98-12.86Q438.98-14.72 439.36-16.64L439.36-16.64L442.37-32.64L455.36-33.92L451.84-15.30L451.84-15.30Q451.71-14.46 451.52-13.57L451.52-13.57L451.52-13.57Q451.33-12.67 451.33-11.74L451.33-11.74L451.33-11.74Q451.33-10.82 451.65-10.21L451.65-10.21L451.65-10.21Q451.97-9.60 452.42-9.22L452.42-9.22L452.42-9.22Q453.18-8.70 454.56-8.70L454.56-8.70L454.56-8.70Q455.94-8.70 457.12-10.37L457.12-10.37L457.12-10.37Q458.30-12.03 458.88-14.91L458.88-14.91L462.40-32.64L475.01-33.92L470.21-8.77L470.21-8.77Q467.84 3.52 462.98 8.38L462.98 8.38L462.98 8.38Q460.48 10.88 457.25 11.87L457.25 11.87L457.25 11.87Q454.02 12.86 449.86 12.86L449.86 12.86L449.86 12.86Q443.14 12.86 439.30 10.75L439.30 10.75L439.30 10.75Q435.46 8.64 435.46 5.12L435.46 5.12L435.46 5.12Q435.46 2.50 437.44 0.99L437.44 0.99L437.44 0.99Q439.42-0.51 442.50-0.51L442.50-0.51L442.50-0.51Q445.18-0.51 447.23 0.64L447.23 0.64L447.23 0.64Q448.45 1.34 449.02 2.24L449.02 2.24L449.02 2.24Q447.55 3.52 447.55 5.63L447.55 5.63L447.55 5.63Q447.55 8.45 450.11 8.45L450.11 8.45L450.11 8.45Q454.34 8.45 456.77-1.28L456.77-1.28L456.77-1.28Q457.47-4.16 458.11-7.23Z" fill="url(#editing-gradient-gradient)"></path></g></g><style>text {
  font-size: 64px;
  font-family: Arial Black;
  dominant-baseline: central;
  text-anchor: middle;
}</style></svg>